# File created by Blade
# Date/Time:  Fri Jan 16 19:41:12 2015
# Frame Rate: 120.000 fps
#------------------------------------------------------
:FULLY-SPECIFIED
:DEGREES
1420
root 18.311418 35.461062 -21.671317 9.576942 5.329188 -0.994140
Spine -22.101595 -3.411891 0.321650
Head 12.160602 -2.427556 1.262012
LeftShoulder -13.478777 -31.859013 22.111995
LeftArm -2.710500 0.104002 -7.709789
LeftForeArm 13.220594 -0.000000 -2.745461
LeftHand -4.540708 -0.000000 -6.237277
LeftHandThumb1 -26.253704 0.000000 33.147579
RightShoulder -11.115342 -1.865105 -11.417281
RightArm 1.484843 35.743108 6.574509
RightForeArm -38.127878 -0.000000 5.762721
RightHand -7.487531 0.000000 10.680357
RightHandThumb1 -24.326973 -0.000000 -32.862282
LeftUpLeg -0.146914 4.285471 2.268132
LeftLeg -6.738673 -0.000000 0.000000
LeftFoot -20.688501 26.365130 -14.134327
LeftToeBase 24.662727 -0.000000 -0.000000
RightUpLeg -0.146236 -10.643788 0.724186
RightLeg -4.038691 -0.000000 0.000000
RightFoot -23.159829 -28.778523 17.238942
RightToeBase 23.055566 -0.000000 -0.000000
1421
root 18.314189 35.461242 -21.672787 9.582686 5.315650 -0.983132
Spine -22.096625 -3.406675 0.315523
Head 12.142738 -2.427327 1.253349
LeftShoulder -13.484833 -31.880656 22.127934
LeftArm -2.722685 0.109289 -7.739715
LeftForeArm 13.202472 0.000000 -2.740228
LeftHand -4.606754 -0.000000 -6.182374
LeftHandThumb1 -26.253704 0.000000 33.147579
RightShoulder -11.116204 -1.889722 -11.411348
RightArm 1.499807 35.759649 6.583851
RightForeArm -38.109374 -0.000000 5.762292
RightHand -7.494589 -0.000000 10.661195
RightHandThumb1 -24.326973 -0.000000 -32.862282
LeftUpLeg -0.152875 4.299094 2.249522
LeftLeg -6.736515 -0.000000 0.000000
LeftFoot -20.688542 26.361521 -14.141470
LeftToeBase 24.660461 -0.000000 -0.000000
RightUpLeg -0.153347 -10.634759 0.708692
RightLeg -4.043705 -0.000000 0.000000
RightFoot -23.163110 -28.781290 17.234103
RightToeBase 23.081502 -0.000000 -0.000000
1422
root 18.316053 35.461304 -21.674337 9.587476 5.303767 -0.982892
Spine -22.085462 -3.400798 0.324887
Head 12.117538 -2.445926 1.227629
LeftShoulder -13.485615 -31.885605 22.105226
LeftArm -2.726615 0.137070 -7.727291
LeftForeArm 13.161699 -0.000000 -2.726790
LeftHand -4.617057 -0.000000 -6.223051
LeftHandThumb1 -26.253704 0.000000 33.147579
RightShoulder -11.114610 -1.850651 -11.424477
RightArm 1.496517 35.737574 6.588315
RightForeArm -38.109430 -0.000000 5.772424
RightHand -7.495125 -0.000000 10.668805
RightHandThumb1 -24.326973 -0.000000 -32.862282
LeftUpLeg -0.157524 4.277799 2.246104
LeftLeg -6.735973 -0.000000 0.000000
LeftFoot -20.698935 26.388937 -14.154634
LeftToeBase 24.688335 -0.000000 -0.000000
RightUpLeg -0.162994 -10.628433 0.704907
RightLeg -4.041180 -0.000000 0.000000
RightFoot -23.154392 -28.788146 17.210824
RightToeBase 23.148442 -0.000000 -0.000000
1423
root 18.318284 35.461293 -21.675417 9.595858 5.287746 -0.977041
Spine -22.084145 -3.404588 0.328406
Head 12.092033 -2.433344 1.222211
LeftShoulder -13.501227 -31.833392 22.091644
LeftArm -2.708888 0.080609 -7.726737
LeftForeArm 13.140301 -0.000000 -2.739677
LeftHand -4.621186 -0.000000 -6.216300
LeftHandThumb1 -26.253704 0.000000 33.147579
RightShoulder -11.104097 -1.883919 -11.410736
RightArm 1.514452 35.760548 6.586278
RightForeArm -38.088906 -0.000000 5.773001
RightHand -7.492970 0.000000 10.680725
RightHandThumb1 -24.326973 -0.000000 -32.862282
LeftUpLeg -0.166038 4.300580 2.232816
LeftLeg -6.732951 -0.000000 0.000000
LeftFoot -20.692499 26.392543 -14.145192
LeftToeBase 24.653110 -0.000000 -0.000000
RightUpLeg -0.170865 -10.635011 0.695303
RightLeg -4.048984 -0.000000 0.000000
RightFoot -23.140987 -28.770494 17.201641
RightToeBase 23.080108 -0.000000 -0.000000
1424
root 18.320013 35.461484 -21.676297 9.596136 5.264203 -0.979914
Spine -22.073724 -3.385239 0.334956
Head 12.077400 -2.445323 1.204718
LeftShoulder -13.496593 -31.860250 22.098299
LeftArm -2.737869 0.064179 -7.731467
LeftForeArm 13.198540 -0.000000 -2.743759
LeftHand -4.584831 -0.000000 -6.267822
LeftHandThumb1 -26.253704 0.000000 33.147579
RightShoulder -11.095596 -1.869163 -11.407983
RightArm 1.506259 35.737461 6.568864
RightForeArm -38.080515 -0.000000 5.773482
RightHand -7.478541 -0.000000 10.698687
RightHandThumb1 -24.326973 -0.000000 -32.862282
LeftUpLeg -0.165986 4.323997 2.229201
LeftLeg -6.729398 -0.000000 0.000000
LeftFoot -20.695989 26.381214 -14.138742
LeftToeBase 24.654793 -0.000000 -0.000000
RightUpLeg -0.175848 -10.614066 0.692682
RightLeg -4.048263 -0.000000 0.000000
RightFoot -23.135952 -28.775751 17.202014
RightToeBase 23.095270 -0.000000 -0.000000
1425
root 18.322040 35.461570 -21.677447 9.599840 5.245713 -0.980295
Spine -22.065615 -3.367659 0.342794
Head 12.048512 -2.445324 1.188191
LeftShoulder -13.494003 -31.872909 22.089711
LeftArm -2.750239 0.066152 -7.734194
LeftForeArm 13.191614 -0.000000 -2.738371
LeftHand -4.599081 0.000000 -6.288445
LeftHandThumb1 -26.253704 0.000000 33.147579
RightShoulder -11.099532 -1.867186 -11.406741
RightArm 1.524173 35.713973 6.562402
RightForeArm -38.048017 -0.000000 5.752975
RightHand -7.478781 -0.000000 10.687155
RightHandThumb1 -24.326973 -0.000000 -32.862282
LeftUpLeg -0.171118 4.345780 2.221793
LeftLeg -6.724325 -0.000000 0.000000
LeftFoot -20.698519 26.383049 -14.137348
LeftToeBase 24.658844 -0.000000 -0.000000
RightUpLeg -0.182609 -10.613485 0.688348
RightLeg -4.049423 -0.000000 0.000000
RightFoot -23.134669 -28.759168 17.202158
RightToeBase 23.135774 -0.000000 -0.000000
1426
root 18.324501 35.461182 -21.678725 9.600396 5.239688 -0.974297
Spine -22.054364 -3.370655 0.346675
Head 12.032232 -2.446924 1.167844
LeftShoulder -13.490591 -31.868231 22.078450
LeftArm -2.760216 0.054475 -7.728954
LeftForeArm 13.189349 -0.000000 -2.753557
LeftHand -4.616698 0.000000 -6.304257
LeftHandThumb1 -26.253704 0.000000 33.147579
RightShoulder -11.088383 -1.860367 -11.412505
RightArm 1.520616 35.726817 6.563464
RightForeArm -38.030379 0.000000 5.772543
RightHand -7.476992 -0.000000 10.779849
RightHandThumb1 -24.326973 -0.000000 -32.862282
LeftUpLeg -0.172610 4.352547 2.210625
LeftLeg -6.723690 -0.000000 0.000000
LeftFoot -20.702354 26.376694 -14.140879
LeftToeBase 24.672810 -0.000000 -0.000000
RightUpLeg -0.181408 -10.614635 0.678071
RightLeg -4.057040 -0.000000 0.000000
RightFoot -23.117443 -28.760460 17.180985
RightToeBase 23.117151 -0.000000 -0.000000
1427
root 18.326253 35.461337 -21.680150 9.606511 5.234696 -0.966442
Spine -22.048365 -3.374460 0.343020
Head 12.003704 -2.445580 1.164030
LeftShoulder -13.499251 -31.874018 22.083414
LeftArm -2.765318 0.068135 -7.733315
LeftForeArm 13.173988 -0.000000 -2.756427
LeftHand -4.625166 -0.000000 -6.323408
LeftHandThumb1 -26.253704 0.000000 33.147579
RightShoulder -11.083577 -1.864597 -11.412714
RightArm 1.533081 35.701908 6.568124
RightForeArm -37.994610 0.000000 5.762237
RightHand -7.466432 0.000000 10.788612
RightHandThumb1 -24.326973 -0.000000 -32.862282
LeftUpLeg -0.182665 4.349629 2.198737
LeftLeg -6.716106 -0.000000 0.000000
LeftFoot -20.706503 26.378296 -14.146598
LeftToeBase 24.677591 -0.000000 -0.000000
RightUpLeg -0.181392 -10.626254 0.669219
RightLeg -4.076532 -0.000000 0.000000
RightFoot -23.101712 -28.759087 17.168681
RightToeBase 23.115030 -0.000000 -0.000000
1428
root 18.328202 35.461352 -21.682220 9.610291 5.223792 -0.965777
Spine -22.038517 -3.360088 0.350029
Head 11.973425 -2.439983 1.146713
LeftShoulder -13.496780 -31.873044 22.071112
LeftArm -2.767578 0.066752 -7.740939
LeftForeArm 13.152459 -0.000000 -2.759598
LeftHand -4.664346 -0.000000 -6.321962
LeftHandThumb1 -26.253704 0.000000 33.147579
RightShoulder -11.078821 -1.862659 -11.415131
RightArm 1.528077 35.674261 6.552818
RightForeArm -37.969882 -0.000000 5.754085
RightHand -7.441650 -0.000000 10.714521
RightHandThumb1 -24.326973 -0.000000 -32.862282
LeftUpLeg -0.191584 4.351251 2.192263
LeftLeg -6.706806 -0.000000 0.000000
LeftFoot -20.715574 26.380883 -14.155886
LeftToeBase 24.625039 -0.000000 -0.000000
RightUpLeg -0.190120 -10.616207 0.665123
RightLeg -4.074269 -0.000000 0.000000
RightFoot -23.100107 -28.755223 17.160026
RightToeBase 23.131532 -0.000000 -0.000000
1429
root 18.328649 35.461417 -21.683977 9.615041 5.215089 -0.966277
Spine -22.031800 -3.355964 0.353789
Head 11.957689 -2.424936 1.137034
LeftShoulder -13.495679 -31.864480 22.054949
LeftArm -2.769558 0.040166 -7.726023
LeftForeArm 13.164831 -0.000000 -2.759449
LeftHand -4.647228 0.000000 -6.347168
LeftHandThumb1 -26.253704 0.000000 33.147579
RightShoulder -11.074340 -1.878497 -11.413596
RightArm 1.538641 35.687318 6.556695
RightForeArm -37.949097 -0.000000 5.753595
RightHand -7.419183 -0.000000 10.727211
RightHandThumb1 -24.326973 -0.000000 -32.862282
LeftUpLeg -0.198439 4.350048 2.191517
LeftLeg -6.706380 -0.000000 0.000000
LeftFoot -20.719594 26.386472 -14.147219
LeftToeBase 24.694316 -0.000000 -0.000000
RightUpLeg -0.200271 -10.626507 0.664910
RightLeg -4.071712 -0.000000 0.000000
RightFoot -23.095899 -28.738299 17.167363
RightToeBase 23.112167 -0.000000 -0.000000
1430
root 18.331229 35.461421 -21.685419 9.619375 5.205438 -0.958266
Spine -22.024101 -3.347794 0.352907
Head 11.934503 -2.419132 1.122869
LeftShoulder -13.504032 -31.844495 22.050451
LeftArm -2.761291 0.027973 -7.740599
LeftForeArm 13.144140 -0.000000 -2.769873
LeftHand -4.700033 -0.000000 -6.322764
LeftHandThumb1 -26.253704 0.000000 33.147579
RightShoulder -11.068278 -1.871918 -11.415893
RightArm 1.543626 35.665410 6.549102
RightForeArm -37.895698 -0.000000 5.749165
RightHand -7.414826 -0.000000 10.797948
RightHandThumb1 -24.326973 -0.000000 -32.862282
LeftUpLeg -0.207667 4.369420 2.167794
LeftLeg -6.712233 -0.000000 0.000000
LeftFoot -20.691712 26.478565 -14.090923
LeftToeBase 24.632988 -0.000000 -0.000000
RightUpLeg -0.204967 -10.623491 0.652266
RightLeg -4.076019 -0.000000 0.000000
RightFoot -23.095628 -28.736594 17.159501
RightToeBase 23.146148 -0.000000 -0.000000
1431
root 18.332968 35.461179 -21.686546 9.619958 5.194095 -0.957398
Spine -22.015899 -3.330268 0.353874
Head 11.915696 -2.423394 1.108987
LeftShoulder -13.493221 -31.862460 22.044283
LeftArm -2.783058 0.019184 -7.738374
LeftForeArm 13.169516 -0.000000 -2.764900
LeftHand -4.650423 -0.000000 -6.361093
LeftHandThumb1 -26.253704 0.000000 33.147579
RightShoulder -11.071558 -1.893264 -11.434703
RightArm 1.575834 35.747087 6.590406
RightForeArm -37.950476 -0.000000 5.717212
RightHand -7.389850 -0.000000 10.749117
RightHandThumb1 -24.326973 -0.000000 -32.862282
LeftUpLeg -0.208086 4.363281 2.170428
LeftLeg -6.697425 -0.000000 0.000000
LeftFoot -20.718961 26.404909 -14.145227
LeftToeBase 24.659990 -0.000000 -0.000000
RightUpLeg -0.209409 -10.623941 0.646242
RightLeg -4.073273 -0.000000 0.000000
RightFoot -23.080077 -28.722777 17.131974
RightToeBase 23.147824 -0.000000 -0.000000
